<svg xmlns="http://www.w3.org/2000/svg" enable-background="new 0 0 1000 1000" viewBox="0 0 1000 1000" id="rainbow"><path fill="#f2f2f2" d="M0 0h1000v1000H0z"></path><path fill="#f5da8d" d="M259.635 609.946c-12.742-31.321-19.429-65.123-19.429-99.955 0-70.804 27.572-137.37 77.638-187.436 50.067-50.067 116.633-77.639 187.437-77.639s137.37 27.573 187.437 77.639c25.474 25.475 45.11 55.227 58.269 87.63l29.189-11.867c-14.722-36.249-36.69-69.534-65.189-98.033-56.015-56.015-130.49-86.863-209.706-86.863S351.59 244.27 295.575 300.285c-56.014 56.015-86.862 130.489-86.862 209.706 0 38.968 7.481 76.782 21.734 111.822l29.188-11.867z"></path><path fill="none" stroke="#3d0938" stroke-linecap="round" stroke-linejoin="round" stroke-miterlimit="10" stroke-width="4" d="M259.635 609.946c-12.742-31.321-19.429-65.123-19.429-99.955 0-70.804 27.572-137.37 77.638-187.436 50.067-50.067 116.633-77.639 187.437-77.639s137.37 27.573 187.437 77.639c25.474 25.475 45.11 55.227 58.269 87.63l29.189-11.867c-14.722-36.249-36.69-69.534-65.189-98.033-56.015-56.015-130.49-86.863-209.706-86.863S351.59 244.27 295.575 300.285c-56.014 56.015-86.862 130.489-86.862 209.706 0 38.968 7.481 76.782 21.734 111.822l29.188-11.867z"></path><path fill="#e38980" d="M288.824 598.079c-11.23-27.602-17.124-57.391-17.124-88.088 0-62.392 24.297-121.049 68.414-165.167 44.118-44.118 102.776-68.415 165.167-68.415s121.049 24.297 165.167 68.415c22.45 22.45 39.755 48.671 51.35 77.227l29.189-11.867c-13.159-32.403-32.795-62.155-58.269-87.63-50.067-50.066-116.633-77.639-187.437-77.639s-137.371 27.573-187.437 77.639c-50.066 50.066-77.638 116.632-77.638 187.436 0 34.833 6.687 68.634 19.429 99.955l29.189-11.866z"></path><path fill="none" stroke="#3d0938" stroke-linecap="round" stroke-linejoin="round" stroke-miterlimit="10" stroke-width="4" d="M288.824 598.079c-11.23-27.602-17.124-57.391-17.124-88.088 0-62.392 24.297-121.049 68.414-165.167 44.118-44.118 102.776-68.415 165.167-68.415s121.049 24.297 165.167 68.415c22.45 22.45 39.755 48.671 51.35 77.227l29.189-11.867c-13.159-32.403-32.795-62.155-58.269-87.63-50.067-50.066-116.633-77.639-187.437-77.639s-137.371 27.573-187.437 77.639c-50.066 50.066-77.638 116.632-77.638 187.436 0 34.833 6.687 68.634 19.429 99.955l29.189-11.866z"></path><path fill="#cc5f7e" d="M318.014 586.212c-9.719-23.884-14.819-49.659-14.819-76.221 0-53.979 21.021-104.728 59.19-142.897s88.918-59.19 142.897-59.19c53.979 0 104.728 21.021 142.897 59.19 19.426 19.426 34.398 42.115 44.43 66.825l29.189-11.867c-11.595-28.557-28.899-54.777-51.35-77.227-44.118-44.118-102.776-68.415-165.167-68.415s-121.049 24.297-165.167 68.415C295.997 388.942 271.7 447.599 271.7 509.991c0 30.697 5.894 60.486 17.124 88.088l29.19-11.867z"></path><path fill="none" stroke="#3d0938" stroke-linecap="round" stroke-linejoin="round" stroke-miterlimit="10" stroke-width="4" d="M318.014 586.212c-9.719-23.884-14.819-49.659-14.819-76.221 0-53.979 21.021-104.728 59.19-142.897s88.918-59.19 142.897-59.19c53.979 0 104.728 21.021 142.897 59.19 19.426 19.426 34.398 42.115 44.43 66.825l29.189-11.867c-11.595-28.557-28.899-54.777-51.35-77.227-44.118-44.118-102.776-68.415-165.167-68.415s-121.049 24.297-165.167 68.415C295.997 388.942 271.7 447.599 271.7 509.991c0 30.697 5.894 60.486 17.124 88.088l29.19-11.867z"></path><path fill="#36c2e3" d="M376.43 562.462c-6.601-16.193-10.248-33.905-10.248-52.472 0-76.822 62.277-139.099 139.099-139.099 58.313 0 108.236 35.887 128.912 86.776l29.227-11.882c-8.468-20.864-21.109-40.021-37.511-56.422-32.221-32.221-75.061-49.966-120.627-49.966-45.567 0-88.407 17.745-120.628 49.966-32.221 32.221-49.966 75.06-49.966 120.628 0 22.427 4.307 44.189 12.514 64.354l29.228-11.883z"></path><path fill="none" stroke="#3d0938" stroke-linecap="round" stroke-linejoin="round" stroke-miterlimit="10" stroke-width="4" d="M376.43 562.462c-6.601-16.193-10.248-33.905-10.248-52.472 0-76.822 62.277-139.099 139.099-139.099 58.313 0 108.236 35.887 128.912 86.776l29.227-11.882c-8.468-20.864-21.109-40.021-37.511-56.422-32.221-32.221-75.061-49.966-120.627-49.966-45.567 0-88.407 17.745-120.628 49.966-32.221 32.221-49.966 75.06-49.966 120.628 0 22.427 4.307 44.189 12.514 64.354l29.228-11.883z"></path><path fill="#6d4f8d" d="M347.203 574.345c-8.207-20.165-12.514-41.927-12.514-64.354 0-45.568 17.745-88.407 49.966-120.628 32.221-32.221 75.061-49.966 120.628-49.966 45.567 0 88.407 17.745 120.627 49.966 16.401 16.402 29.042 35.559 37.511 56.422l29.189-11.867c-10.032-24.71-25.004-47.399-44.43-66.825-38.169-38.169-88.918-59.19-142.897-59.19-53.979 0-104.728 21.021-142.897 59.19s-59.19 88.918-59.19 142.897c0 26.562 5.101 52.338 14.819 76.221l29.188-11.866z"></path><path fill="none" stroke="#3d0938" stroke-linecap="round" stroke-linejoin="round" stroke-miterlimit="10" stroke-width="4" d="M347.203 574.345c-8.207-20.165-12.514-41.927-12.514-64.354 0-45.568 17.745-88.407 49.966-120.628 32.221-32.221 75.061-49.966 120.628-49.966 45.567 0 88.407 17.745 120.627 49.966 16.401 16.402 29.042 35.559 37.511 56.422l29.189-11.867c-10.032-24.71-25.004-47.399-44.43-66.825-38.169-38.169-88.918-59.19-142.897-59.19-53.979 0-104.728 21.021-142.897 59.19s-59.19 88.918-59.19 142.897c0 26.562 5.101 52.338 14.819 76.221l29.188-11.866z"></path><path fill="none" stroke="#3d0938" stroke-linecap="round" stroke-linejoin="round" stroke-miterlimit="10" stroke-width="6" d="M345.823 539.027h29.328M368.312 539.027h29.327"></path><path fill="#fff" d="M787.72 386.231c-7.944 0-15.107 3.324-20.191 8.65-3.124-30.47-28.866-54.239-60.161-54.239-25.824 0-47.855 16.191-56.529 38.97-6.172-2.183-12.901-3.396-19.953-3.396-29.716 0-53.805 21.314-53.805 47.607 0 24.626 21.133 44.883 48.228 47.352 6.714 22.449 27.515 38.815 52.148 38.815 22.681 0 42.115-13.876 50.295-33.598 6.365 5.667 14.749 9.115 23.941 9.115 19.896 0 36.026-16.129 36.026-36.026 0-2.552-.269-5.04-.774-7.442.258.007.514.02.774.02 15.416 0 27.914-12.498 27.914-27.914.001-15.416-12.496-27.914-27.913-27.914z"></path><path fill="#cff" d="M787.72 418.059c-.26 0-.516-.013-.774-.02.505 2.402.774 4.89.774 7.442 0 19.896-16.129 36.026-36.026 36.026-9.192 0-17.576-3.448-23.941-9.115-8.18 19.723-27.614 33.598-50.295 33.598-24.633 0-45.434-16.367-52.148-38.815-22.54-2.054-40.941-16.422-46.495-35.371a42.504 42.504 0 0 0-1.733 12.018c0 24.626 21.133 44.883 48.228 47.352 6.714 22.449 27.515 38.815 52.148 38.815 22.681 0 42.115-13.876 50.295-33.598 6.365 5.667 14.749 9.115 23.941 9.115 19.896 0 36.026-16.129 36.026-36.026 0-2.552-.269-5.04-.774-7.442.258.007.514.02.774.02 15.416 0 27.914-12.497 27.914-27.914 0-4.296-.973-8.365-2.707-12-4.487 9.411-14.086 15.915-25.207 15.915z"></path><path fill="#3d0938" d="m780.18 398.32-29.19 11.86-87.57 35.61-29.23 11.88c-11.2-27.59-31.01-50.76-56.08-66.19 6.6-8.75 15.8-15.78 26.58-20.17 8-3.27 16.87-5.09 26.2-5.09 4.89 0 9.72.5 14.43 1.48.4-.74.82-1.48 1.25-2.2 5.44-9.23 12.9-17.02 21.65-22.88 9.6-6.43 20.77-10.54 32.54-11.66a69 69 0 0 1 6.61-.32c17.73 0 34 6.5 46.43 17.36a292.484 292.484 0 0 1 26.38 50.32z" opacity=".43"></path><path fill="none" stroke="#3d0938" stroke-linecap="round" stroke-linejoin="round" stroke-miterlimit="10" stroke-width="4" d="M787.72 386.231c-7.944 0-15.107 3.324-20.191 8.65-3.124-30.47-28.866-54.239-60.161-54.239-25.824 0-47.855 16.191-56.529 38.97-6.172-2.183-12.901-3.396-19.953-3.396-29.716 0-53.805 21.314-53.805 47.607 0 24.626 21.133 44.883 48.228 47.352 6.714 22.449 27.515 38.815 52.148 38.815 22.681 0 42.115-13.876 50.295-33.598 6.365 5.667 14.749 9.115 23.941 9.115 19.896 0 36.026-16.129 36.026-36.026 0-2.552-.269-5.04-.774-7.442.258.007.514.02.774.02 15.416 0 27.914-12.498 27.914-27.914.001-15.416-12.496-27.914-27.913-27.914z"></path><path fill="#3d0938" d="m376.43 562.46-29.23 11.88-58.38 23.74-29.18 11.87-29.19 11.86c-14.26-35.04-21.74-72.85-21.74-111.82 0-6.67.22-13.31.66-19.9.9-.03 1.79-.04 2.68-.04 5.16 0 10.29.49 15.33 1.48a89.131 89.131 0 0 1 15-15.72 88.778 88.778 0 0 1 35.05-17.58 88.062 88.062 0 0 1 18.55-2.6c1.02-.04 2.03-.05 3.05-.05 3.83 0 7.62.25 11.34.73a88.914 88.914 0 0 1 30.05 9.54 90.174 90.174 0 0 1 27.46 22.33c-1.12 7.1-1.7 14.39-1.7 21.81 0 18.57 3.65 36.28 10.25 52.47z" opacity=".43"></path><path fill="#fff" d="M489.171 596.723c-.679-20.193-17.599-36.011-37.792-35.332-1.93.065-3.818.28-5.657.631-8.177-21.772-29.524-36.935-54.056-36.11a55.712 55.712 0 0 0-15.11 2.622c-7.735-37.011-41.157-64.224-80.24-62.909-27.398.921-51.078 15.643-64.592 37.264a69.338 69.338 0 0 0-22.035-2.801c-38.303 1.288-68.309 33.383-67.021 71.686 1.288 38.303 33.383 68.309 71.686 67.021a70.273 70.273 0 0 0 6.919-.577c13.322 27.154 41.671 45.421 73.86 44.339 33.237-1.118 60.999-22.546 71.781-51.961a55.48 55.48 0 0 0 28.501 6.744 55.495 55.495 0 0 0 32.844-12.1c6.774 6.047 15.789 9.605 25.581 9.276 20.191-.681 36.01-17.601 35.331-37.793z"></path><path fill="#cff" d="M487.439 586.773c-4.594 14.28-17.747 24.827-33.601 25.36-9.792.329-18.807-3.229-25.581-9.276a55.495 55.495 0 0 1-32.844 12.1 55.463 55.463 0 0 1-28.501-6.744c-10.781 29.415-38.544 50.843-71.781 51.961-32.189 1.082-60.537-17.185-73.86-44.339-2.272.303-4.58.498-6.919.577-35.312 1.188-65.326-24.23-70.811-58.218a69.685 69.685 0 0 0-.875 13.579c1.288 38.303 33.383 68.309 71.686 67.021a70.273 70.273 0 0 0 6.919-.577c13.322 27.154 41.671 45.421 73.86 44.339 33.237-1.118 60.999-22.546 71.781-51.961a55.48 55.48 0 0 0 28.501 6.744 55.495 55.495 0 0 0 32.844-12.1c6.774 6.047 15.789 9.605 25.581 9.276 20.193-.679 36.011-17.599 35.332-37.791a36.548 36.548 0 0 0-1.731-9.951z"></path><path fill="none" stroke="#3d0938" stroke-linecap="round" stroke-linejoin="round" stroke-miterlimit="10" stroke-width="4" d="M489.171 596.723c-.679-20.193-17.599-36.011-37.792-35.332-1.93.065-3.818.28-5.657.631-8.177-21.772-29.524-36.935-54.056-36.11a55.712 55.712 0 0 0-15.11 2.622c-7.735-37.011-41.157-64.224-80.24-62.909-27.398.921-51.078 15.643-64.592 37.264a69.338 69.338 0 0 0-22.035-2.801c-38.303 1.288-68.309 33.383-67.021 71.686 1.288 38.303 33.383 68.309 71.686 67.021a70.273 70.273 0 0 0 6.919-.577c13.322 27.154 41.671 45.421 73.86 44.339 33.237-1.118 60.999-22.546 71.781-51.961a55.48 55.48 0 0 0 28.501 6.744 55.495 55.495 0 0 0 32.844-12.1c6.774 6.047 15.789 9.605 25.581 9.276 20.191-.681 36.01-17.601 35.331-37.793z"></path><path fill="#f0406f" d="m544.018 584.363 13.462 18.022 6.967-11.044z"></path><path fill="none" stroke="#3d0938" stroke-linecap="round" stroke-linejoin="round" stroke-miterlimit="10" stroke-width="4" d="m544.018 584.363 13.462 18.022 6.967-11.044z"></path><path fill="#f0406f" d="m553.445 565.878 11.002 25.463 11.897-6.663z"></path><path fill="none" stroke="#3d0938" stroke-linecap="round" stroke-linejoin="round" stroke-miterlimit="10" stroke-width="4" d="m553.445 565.878 11.002 25.463 11.897-6.663z"></path><path fill="#d4907f" d="M743.461 604.911c-9.541 1.163-30.792 2.198-55.158-6.588-33.135-11.948-50.046-9.942-57.29-7.674-.015.005-.029.018-.044.024a43.38 43.38 0 0 0-7.506 2.707c-21.579 10.141-30.852 35.856-20.711 57.435 6.421 13.662 19.085 22.382 32.989 24.374l.001.007s.419.058 1.154.145c.189.022.377.046.566.065 5.152.578 20.813 1.941 31.373-1.392 11.049-5.192-5.019-10.68-5.019-10.68s12.459 3.536 21.876-1.288c13.8-7.07-1.622-12.127-1.622-12.127s13.563 4.135 23.618-5.087c6.328-5.803.795-7.816-4.175-8.511 7.05.122 18.642-.86 22.543-8.171 2.776-5.202-3.542-6.404-8.204-6.617 5.914-.248 16.357-1.363 22.364-5.97 2.833-2.173 4.743-4.068 6.027-5.659 1.739-2.156-.03-5.329-2.782-4.993z"></path><path fill="none" stroke="#3d0938" stroke-linecap="round" stroke-linejoin="round" stroke-miterlimit="10" stroke-width="4" d="M743.461 604.911c-9.541 1.163-30.792 2.198-55.158-6.588-33.135-11.948-50.046-9.942-57.29-7.674-.015.005-.029.018-.044.024a43.38 43.38 0 0 0-7.506 2.707c-21.579 10.141-30.852 35.856-20.711 57.435 6.421 13.662 19.085 22.382 32.989 24.374l.001.007s.419.058 1.154.145c.189.022.377.046.566.065 5.152.578 20.813 1.941 31.373-1.392 11.049-5.192-5.019-10.68-5.019-10.68s12.459 3.536 21.876-1.288c13.8-7.07-1.622-12.127-1.622-12.127s13.563 4.135 23.618-5.087c6.328-5.803.795-7.816-4.175-8.511 7.05.122 18.642-.86 22.543-8.171 2.776-5.202-6.059-6.51-10.72-6.722 5.914-.248 18.873-1.257 24.88-5.865 2.833-2.173 4.743-4.068 6.027-5.659 1.739-2.156-.03-5.329-2.782-4.993z"></path><path fill="none" stroke="#3d0938" stroke-linecap="round" stroke-linejoin="round" stroke-miterlimit="10" stroke-width="5" d="M678.89 682.604s20.754 4.839 50.62 23.063c29.866 18.223 42.284 13.872 42.284 13.872"></path><path fill="none" stroke="#3d0938" stroke-linecap="round" stroke-linejoin="round" stroke-miterlimit="10" stroke-width="5" d="M736.596 727.939s-13.667-.476-27.335-18.208-18.984-26.172-24.678-26.65"></path><path fill="#f0406f" d="M787.359 647.686c.918-.97 1.734-2.663 1.358-4.365-.097-.439-.393-1.472-1.357-2.22-.997-.774-2.412-1.099-3.888-.78 2.955-.702 4.935-3.438 4.469-6.024l-.001-.005-.001-.005c-.466-2.586-3.277-4.457-6.292-4.083 1.494-.216 2.707-1.015 3.371-2.089.642-1.038.558-2.109.496-2.554-.242-1.727-1.598-3.027-2.797-3.616-2.609-1.281-5.948.083-8.727 1.26-5.539 2.345-8.927 5.784-11.33 8.273a47.522 47.522 0 0 0-6.566 8.554l.011.004-.009.007a47.51 47.51 0 0 0 9.141 5.721c3.121 1.492 7.498 3.531 13.507 3.792 3.012.13 6.618.243 8.615-1.87z"></path><path fill="#db2c62" d="M786.925 643.321c-.097-.439-.393-1.472-1.357-2.22a4.06 4.06 0 0 0-.558-.355 5.576 5.576 0 0 1-1.07 1.686c-1.997 2.112-5.603 2-8.617 1.869-6.009-.262-10.386-2.301-13.507-3.792a47.886 47.886 0 0 1-5.72-3.241 47.052 47.052 0 0 0-1.795 2.764l.011.004-.009.007a47.51 47.51 0 0 0 9.141 5.721c3.121 1.492 7.498 3.531 13.507 3.792 3.014.131 6.62.243 8.617-1.869.917-.971 1.733-2.664 1.357-4.366zM781.597 622.86c-.664 1.074-1.876 1.873-3.371 2.089 2.191-.272 4.262.65 5.416 2.163.167-.666.12-1.251.078-1.551-.184-1.313-1.012-2.377-1.926-3.071-.056.123-.12.247-.197.37z"></path><path fill="#f96291" d="M754.302 640.042c.29.231.575.445.861.663a47.895 47.895 0 0 1 3.703-4.328c2.403-2.488 5.792-5.928 11.33-8.273 2.779-1.176 6.118-2.541 8.727-1.26 1.002.492 2.104 1.485 2.584 2.804.722-.379 1.324-.898 1.717-1.534.642-1.038.558-2.109.496-2.554-.242-1.727-1.598-3.027-2.797-3.616-2.609-1.281-5.949.083-8.727 1.26-5.539 2.345-8.927 5.784-11.33 8.273a47.522 47.522 0 0 0-6.566 8.554l.011.004a.035.035 0 0 1-.009.007z"></path><path fill="none" stroke="#3d0938" stroke-linecap="round" stroke-linejoin="round" stroke-miterlimit="10" stroke-width="4" d="M787.359 647.686c.918-.97 1.734-2.663 1.358-4.365-.097-.439-.393-1.472-1.357-2.22-.997-.774-2.412-1.099-3.888-.78 2.955-.702 4.935-3.438 4.469-6.024l-.001-.005-.001-.005c-.466-2.586-3.277-4.457-6.292-4.083 1.494-.216 2.707-1.015 3.371-2.089.642-1.038.558-2.109.496-2.554-.242-1.727-1.598-3.027-2.797-3.616-2.609-1.281-5.948.083-8.727 1.26-5.539 2.345-8.927 5.784-11.33 8.273a47.522 47.522 0 0 0-6.566 8.554l.011.004-.009.007a47.51 47.51 0 0 0 9.141 5.721c3.121 1.492 7.498 3.531 13.507 3.792 3.012.13 6.618.243 8.615-1.87z"></path><path fill="#f1cb9c" d="M756.092 640.051s-45.483 4.098-92.143-29.592c-15.938-11.508-26.316-18.85-33.082-23.536a46.348 46.348 0 0 0-11.258-7.506c-1.47-.876-1.381-.675-1.381-.675l-.004.008a46.202 46.202 0 0 0-18.391-3.806c-25.62 0-46.389 20.769-46.389 46.389 0 17.405 9.599 32.551 23.78 40.488l-.009.018.27.14c1.798.99 3.682 1.833 5.615 2.582 20.982 8.889 95.17 33.34 172.992-24.51z"></path><path fill="#f8e4c1" d="M599.834 580.357a46.22 46.22 0 0 1 18.391 3.806l.004-.008s-.089-.201 1.381.675a46.377 46.377 0 0 1 11.258 7.506c6.765 4.686 17.143 12.028 33.082 23.536 36.184 26.126 74.02 27.159 88.127 27.37 2.125-1.463 1.885-.607 4.017-2.192 0 0-45.483 4.098-92.143-29.592-15.938-11.508-26.316-18.85-33.082-23.536a46.377 46.377 0 0 0-11.258-7.506c-1.47-.876-1.381-.675-1.381-.675l-.004.008a46.202 46.202 0 0 0-18.391-3.806c-25.62 0-46.389 20.769-46.389 46.389 0 .653.04 1.296.067 1.942 1.284-24.47 21.53-43.917 46.321-43.917z"></path><path fill="#d4907f" d="M744.848 640.016c-72.534 45.339-139.216 23.256-158.929 14.904-1.933-.749-3.817-1.591-5.615-2.582l-.27-.14.009-.018c-14.18-7.936-23.78-23.083-23.78-40.488 0-2.793.261-5.524.734-8.181a46.231 46.231 0 0 0-3.553 17.821c0 17.405 9.599 32.551 23.78 40.488l-.009.018.27.14c1.798.99 3.682 1.833 5.615 2.582 20.982 8.89 95.17 33.341 172.993-24.509-.001 0-4.16.373-11.245-.035z"></path><path fill="none" stroke="#3d0938" stroke-linecap="round" stroke-linejoin="round" stroke-miterlimit="10" stroke-width="4" d="M756.092 640.051s-45.483 4.098-92.143-29.592c-15.938-11.508-26.316-18.85-33.082-23.536a46.348 46.348 0 0 0-11.258-7.506c-1.47-.876-1.381-.675-1.381-.675l-.004.008a46.202 46.202 0 0 0-18.391-3.806c-25.62 0-46.389 20.769-46.389 46.389 0 17.405 9.599 32.551 23.78 40.488l-.009.018.27.14c1.798.99 3.682 1.833 5.615 2.582 20.982 8.889 95.17 33.34 172.992-24.51z"></path><path fill="#efab89" d="M723.216 682.902c-9.13-3.005-28.803-11.107-47.118-29.423-24.907-24.907-41.065-30.284-48.586-31.312-.016-.002-.034.004-.05.003a43.406 43.406 0 0 0-7.944-.742c-23.844 0-43.173 19.329-43.173 43.173 0 15.096 7.753 28.374 19.489 36.091l-.002.006s.354.231.983.622c.161.1.322.202.484.299 4.417 2.714 18.011 10.609 28.986 12.084 12.208 0 0-11.801 0-11.801s9.772 8.499 20.346 8.138c15.496-.529 3.69-11.665 3.69-11.665s10.517 9.511 23.538 5.442c8.195-2.561 4.044-6.736-.159-9.479 6.328 3.109 17.237 7.15 23.877 2.193 4.725-3.527-.482-7.303-4.61-9.477 5.458 2.291 15.383 5.724 22.78 4.109 3.489-.762 6.023-1.664 7.861-2.558 2.493-1.212 2.241-4.836-.392-5.703z"></path><path fill="#d4907f" d="M627.284 704.704c-10.975-1.475-24.569-9.37-28.986-12.084-.163-.098-.323-.199-.484-.299-.628-.391-.983-.622-.983-.622l.002-.006c-11.736-7.717-19.489-20.995-19.489-36.091 0-.088.006-.174.007-.262a43.282 43.282 0 0 0-1.007 9.262c0 15.096 7.753 28.374 19.489 36.091l-.002.006s.354.231.983.622c.161.1.322.202.484.299 4.417 2.714 18.011 10.609 28.986 12.084 8.401 0 5.239-5.588 2.451-9.073-.444.043-.916.073-1.451.073zM723.216 682.902a97.83 97.83 0 0 1-3.89-1.374c-.797.22-2.028-.137-2.58.635-3.746 5.239-24.289 2.732-29.746.441 4.128 2.175 3.324 3.274 11.577 4.928.669.134-1.131.735-1.73 1.026 5.56 1.985 13.024 3.888 18.9 2.605 3.489-.762 6.023-1.664 7.861-2.558 2.493-1.212 2.241-4.836-.392-5.703zM647.63 701.042c-10.574.361-25.476-7.387-25.476-7.387-2.321 1.7-3.493-.498 7.63 10.82 3.775 2.47 10.147 5.795 16.846 5.566 11.285-.385 8.091-6.392 5.522-9.631-1.15.342-2.629.567-4.522.632zM674.538 694.908c-12.873 3.815-28.205-3.328-28.205-3.328s.864 3.693 6.428 8.62c3.845 2.537 11.835 6.512 21.096 3.617 7.648-2.389 4.545-6.183.681-8.909zM696.046 688.924c-5.296 4.731-23.135 1.219-28.712-1.522 4.203 2.743 4.167 4.931 7.525 7.416.028.02-.065.018-.098.028 6.43 3.01 16.532 6.378 22.817 1.686 3.561-2.659 1.477-5.459-1.532-7.608z"></path><path fill="none" stroke="#3d0938" stroke-linecap="round" stroke-linejoin="round" stroke-miterlimit="10" stroke-width="4" d="M723.216 682.902c-9.13-3.005-28.803-11.107-47.118-29.423-24.907-24.907-41.065-30.284-48.586-31.312-.016-.002-.034.004-.05.003a43.406 43.406 0 0 0-7.944-.742c-23.844 0-43.173 19.329-43.173 43.173 0 15.096 7.753 28.374 19.489 36.091l-.002.006s.354.231.983.622c.161.1.322.202.484.299 4.417 2.714 18.011 10.609 28.986 12.084 12.208 0 0-11.801 0-11.801s9.772 8.499 20.346 8.138c15.496-.529 3.69-11.665 3.69-11.665s10.517 9.511 23.538 5.442c8.195-2.561 4.044-6.736-.159-9.479 6.328 3.109 17.237 7.15 23.877 2.193 4.725-3.527-.482-7.303-4.61-9.477 5.458 2.291 15.383 5.724 22.78 4.109 3.489-.762 6.023-1.664 7.861-2.558 2.493-1.212 2.241-4.836-.392-5.703zM581.097 601.439s.633 11.01 10.757 11.01c8.859 0 11.39-4.197 11.39-4.197M577.68 608.146l4.999-1.202M582.679 613.714l2.432-3.611M590.335 612.449v4.049M598.642 611.395l1.817 5.103"></path><path fill="none" stroke="#3d0938" stroke-linecap="round" stroke-linejoin="round" stroke-miterlimit="10" stroke-width="3" d="M605.75 641.75s3.375 3.875 7.25 0M594.437 659.632s6.95 2.751 9.692-3.653M595.119 676.486s4.887 1.934 6.815-2.569M635.977 654.956s4.162 3.21 7.26-.585M648.491 679.501s4.162 3.21 7.26-.585M657.587 665.968s4.162 3.21 7.26-.585M631.332 668.151s4.162 3.21 7.26-.585M667.542 602.97s4.162 3.21 7.26-.585M696.049 625.645s4.162 3.21 7.26-.585M696.08 615.223s4.918 1.854 6.772-2.68M681.263 613.036s5.226.564 5.886-4.29M617.623 681.093s4.958 1.745 6.712-2.829M615.935 653.469s5.41 3.869 9.154-1.072M613 666.125s5.41 3.869 9.154-1.072"></path><path fill="none" stroke="#3d0938" stroke-linecap="round" stroke-linejoin="round" stroke-miterlimit="10" stroke-width="4" d="M620.622 694.339s.839 2.741 5.662 7.564M650.32 698.376s-2.119-1.274-5.253-6.043M673.699 694.339s-4.308-2.993-7.797-6.937M692.966 687.054s-6.716-2.804-8.466-4.554"></path><path fill="#f0406f" d="M523.455 503.193h-.003v21.469a8.191 8.191 0 0 0-1.689-.181c-3.919 0-7.096 2.728-7.096 6.093 0 3.365 3.177 6.092 7.096 6.092s7.096-2.728 7.096-6.092v-23.723l15.563-6.605v17.12a8.191 8.191 0 0 0-1.689-.181c-3.919 0-7.096 2.728-7.096 6.093 0 3.365 3.177 6.092 7.096 6.092s7.096-2.728 7.096-6.092V492l-26.374 11.193z"></path><path fill="none" stroke="#3d0938" stroke-linecap="round" stroke-linejoin="round" stroke-miterlimit="10" stroke-width="2" d="M523.455 503.193h-.003v21.469a8.191 8.191 0 0 0-1.689-.181c-3.919 0-7.096 2.728-7.096 6.093 0 3.365 3.177 6.092 7.096 6.092s7.096-2.728 7.096-6.092v-23.723l15.563-6.605v17.12a8.191 8.191 0 0 0-1.689-.181c-3.919 0-7.096 2.728-7.096 6.093 0 3.365 3.177 6.092 7.096 6.092s7.096-2.728 7.096-6.092V492l-26.374 11.193z"></path><path fill="#21e8a6" d="m522.21 415.528-.004-.001-7.159 25.678c-.332 1.192-1.575 1.827-2.766 1.492l-.023-.006c-5.114-1.426-10.251.978-11.475 5.369-1.224 4.39 1.929 9.105 7.043 10.531 5.113 1.426 10.251-.978 11.475-5.368l8.242-29.564a2.182 2.182 0 0 1 1.82-1.578l18.007-2.345a2.182 2.182 0 0 1 2.384 2.75l-4.691 16.827c-.332 1.192-1.575 1.827-2.766 1.492l-.023-.006c-5.113-1.426-10.251.978-11.475 5.369-1.224 4.391 1.929 9.105 7.042 10.531 5.113 1.426 10.251-.978 11.475-5.368l9.213-33.047.747-2.681.532-1.908a2.182 2.182 0 0 0-2.384-2.75l-35.214 4.583z"></path><path fill="none" stroke="#3d0938" stroke-linecap="round" stroke-linejoin="round" stroke-miterlimit="10" stroke-width="2" d="m522.21 415.528-.004-.001-7.159 25.678c-.332 1.192-1.575 1.827-2.766 1.492l-.023-.006c-5.114-1.426-10.251.978-11.475 5.369-1.224 4.39 1.929 9.105 7.043 10.531 5.113 1.426 10.251-.978 11.475-5.368l8.242-29.564a2.182 2.182 0 0 1 1.82-1.578l18.007-2.345a2.182 2.182 0 0 1 2.384 2.75l-4.691 16.827c-.332 1.192-1.575 1.827-2.766 1.492l-.023-.006c-5.113-1.426-10.251.978-11.475 5.369-1.224 4.391 1.929 9.105 7.042 10.531 5.113 1.426 10.251-.978 11.475-5.368l9.213-33.047.747-2.681.532-1.908a2.182 2.182 0 0 0-2.384-2.75l-35.214 4.583z"></path><path fill="#e38980" d="m536.511 548.08-.815 1.159a9.539 9.539 0 0 1-3.13 2.827l-6.542 3.672.938 3.132-.017.005 3.458 11.547a4.632 4.632 0 0 0-1.097.189c-2.143.642-3.435 2.65-2.885 4.486.55 1.836 2.732 2.803 4.875 2.162 2.01-.602 2.51-1.175 2.205-2.911l.125-.97-3.512-12.512 4.407-2.627a9.52 9.52 0 0 0 3.462-3.306l.391-.632-1.863-6.221z"></path><path fill="none" stroke="#3d0938" stroke-linecap="round" stroke-linejoin="round" stroke-miterlimit="10" stroke-width="2" d="m537.511 548.08-.815 1.159a9.539 9.539 0 0 1-3.13 2.827l-6.542 3.672.938 3.132-.017.005 3.458 11.547a4.632 4.632 0 0 0-1.097.189c-2.143.642-3.435 2.65-2.885 4.486.55 1.836 2.732 2.803 4.875 2.162 2.01-.602 1.188-1.431.883-3.167l.02-.006-3.782-12.631 6.104-3.216a9.52 9.52 0 0 0 3.462-3.306l.391-.632-1.863-6.221z"></path><path fill="#fff" d="M262.907 359.164c-1.973-11.364-12.785-18.978-24.149-17.005-.185.032-.36.086-.543.123-4.995-13.112-18.718-21.285-33.06-18.795-12.401 2.153-21.675 11.656-24.144 23.257a18.049 18.049 0 0 0-11.765-1.949c-9.87 1.714-16.482 11.104-14.769 20.974 1.714 9.87 11.104 16.482 20.974 14.769a18.039 18.039 0 0 0 8.555-3.994c2.349 13.239 14.962 22.097 28.221 19.795 9.043-1.57 16.05-7.928 18.881-16.017 4.239 2.707 9.449 3.919 14.794 2.991 11.364-1.973 18.978-12.785 17.005-24.149z"></path><path fill="#cff" d="M247.569 374.588c-5.345.928-10.556-.285-14.794-2.991-2.83 8.089-9.838 14.447-18.881 16.017-13.259 2.302-25.873-6.556-28.221-19.795a18.025 18.025 0 0 1-8.555 3.994c-9.87 1.714-19.261-4.899-20.974-14.769a18.48 18.48 0 0 1-.229-2.034 18.041 18.041 0 0 0-1.438 10.759c1.714 9.87 11.104 16.482 20.974 14.769a18.039 18.039 0 0 0 8.555-3.994c2.349 13.239 14.962 22.097 28.221 19.795 9.043-1.57 16.05-7.928 18.881-16.017 4.239 2.707 9.449 3.919 14.794 2.991 10.336-1.794 17.542-10.904 17.283-21.086-2.693 6.272-8.39 11.107-15.616 12.361z"></path><path fill="#3d0938" d="M235.619 392.877a30.63 30.63 0 0 0 6.715.744h.001c1.759 0 3.535-.153 5.278-.456 16.779-2.913 28.06-18.934 25.147-35.712a30.832 30.832 0 0 0-10.17-18.043 293.636 293.636 0 0 0-32.283 59.107 34.503 34.503 0 0 0 5.312-5.64z" opacity=".43"></path><path fill="none" stroke="#3d0938" stroke-linecap="round" stroke-linejoin="round" stroke-miterlimit="10" stroke-width="4" d="M262.907 359.164c-1.973-11.364-12.785-18.978-24.149-17.005-.185.032-.36.086-.543.123-4.995-13.112-18.718-21.285-33.06-18.795-12.401 2.153-21.675 11.656-24.144 23.257a18.049 18.049 0 0 0-11.765-1.949c-9.87 1.714-16.482 11.104-14.769 20.974 1.714 9.87 11.104 16.482 20.974 14.769a18.039 18.039 0 0 0 8.555-3.994c2.349 13.239 14.962 22.097 28.221 19.795 9.043-1.57 16.05-7.928 18.881-16.017 4.239 2.707 9.449 3.919 14.794 2.991 11.364-1.973 18.978-12.785 17.005-24.149z"></path></svg>