<svg xmlns="http://www.w3.org/2000/svg" data-name="Layer 1" viewBox="0 0 512 512" id="rainbow"><path fill="#e5303e" d="M40.22413,322.282C50.43841,204.14524,149.57159,111.44327,270.35648,111.44327c127.57777,0,231,103.42222,231,231a230.77316,230.77316,0,0,1-11.68907,72.75058L290.718,227.86393Z"></path><path fill="#2c2b2d" d="M489.66846,422.6958a7.50494,7.50494,0,0,1-7.12012-9.8623,223.26075,223.26075,0,0,0,11.30811-70.39014c0-123.23828-100.26172-223.5-223.5-223.5-114.96631,0-212.77051,89.60107-222.66016,203.98486a7.5,7.5,0,0,1-14.94434-1.292,238.51562,238.51562,0,1,1,464.03467,95.918A7.5043,7.5043,0,0,1,489.66846,422.6958Z"></path><path fill="#fdd402" d="M74.81435,322.443c9.78757-99.09295,93.37518-176.49977,195.04213-176.49977,108.24781,0,196,87.75219,196,196a197.55741,197.55741,0,0,1-2.1913,29.40656,195.41979,195.41979,0,0,1-52.87286,106.80342L324.09989,215.53357Z"></path><path fill="#2c2b2d" d="M410.7915,485.65332a7.50024,7.50024,0,0,1-5.3916-12.71289,187.06939,187.06939,0,0,0,50.84864-102.70654,190.71868,190.71868,0,0,0,2.10791-28.29053c0-103.93945-84.56055-188.5-188.5-188.5A187.74514,187.74514,0,0,0,82.27832,323.18018a7.50019,7.50019,0,0,1-14.92773-1.47461A203.52457,203.52457,0,0,1,269.85645,138.44336c112.21044,0,203.5,91.28955,203.5,203.5a205.82689,205.82689,0,0,1-2.27491,30.52246,201.99207,201.99207,0,0,1-54.89648,110.90039A7.47916,7.47916,0,0,1,410.7915,485.65332Z"></path><path fill="#4ebaea" d="M430.86,341.93994q0,5.18994-.33,10.29L368.27,346.04l-14.95-1.49c.03-.87012.04-1.74.04-2.61011A83.51171,83.51171,0,0,0,188.28,324.04a7.44148,7.44148,0,0,1-2.21,3.86987l-11.23-1.11987-64.55-6.42A161.01142,161.01142,0,0,1,430.86,341.93994Z"></path><path fill="#2c2b2d" d="M430.54053,359.731c-.15918,0-.31836-.00537-.479-.01514a7.50084,7.50084,0,0,1-7.01367-7.957c.20508-3.24707.3086-6.54932.3086-9.81543,0-84.64014-68.85987-153.5-153.5-153.5-76.583,0-141.98633,57.14453-152.13379,132.92383a7.5,7.5,0,0,1-14.86719-1.99121,168.53244,168.53244,0,0,1,167.001-145.93262c92.91113,0,168.5,75.58887,168.5,168.5,0,3.5791-.11377,7.19922-.3379,10.75879A7.50166,7.50166,0,0,1,430.54053,359.731Z"></path><path fill="#93509e" d="M395.86,341.93994a127.04246,127.04246,0,0,1-1.43,19.03l-27.19.79-14.82-7.29a83.53392,83.53392,0,0,0-82.56-96.03A83.9497,83.9497,0,0,0,188.28,324.04,7.42153,7.42153,0,0,1,185.21,328.6l-10.2-1.57-29.65-4.59009a126.00974,126.00974,0,0,1,250.5,19.5Z"></path><path fill="#2c2b2d" d="M394.439,368.46973a7.506,7.506,0,0,1-7.4248-8.62354,119.98,119.98,0,0,0,1.34229-17.90283,118.50977,118.50977,0,0,0-235.58887-18.34912,7.5,7.5,0,0,1-14.82227-2.30274A133.53205,133.53205,0,0,1,269.85645,208.44336c73.6123,0,133.5,59.88769,133.5,133.5a135.013,135.013,0,0,1-1.51124,20.14844A7.50218,7.50218,0,0,1,394.439,368.46973Z"></path><path fill="#2c2b2d" d="M368.36,341.93994c0,1.37012-.03,2.74-.09,4.1001a98.76062,98.76062,0,0,1-5.79,29.48,7.48762,7.48762,0,0,1-7.05,4.93994,7.33477,7.33477,0,0,1-2.55-.45,7.49954,7.49954,0,0,1-4.5-9.61011,83.68344,83.68344,0,0,0,4.94-25.84985c.03-.87012.04-1.74.04-2.61011A83.51171,83.51171,0,0,0,188.28,324.04a7.44148,7.44148,0,0,1-2.21,3.86987A8.11342,8.11342,0,0,1,185.21,328.6a7.48836,7.48836,0,0,1-10.2-1.57c-.06006-.08008-.12-.16-.16992-.24A7.47384,7.47384,0,0,1,173.62,320.84a98.51467,98.51467,0,0,1,194.74,21.1Z"></path><path fill="#e0e0e2" d="M477.26285,403.666a45.631,45.631,0,0,0-82.22456-36.54146A43.378,43.378,0,0,0,337.66838,402.551a38.52876,38.52876,0,0,0-32.52486,38.05428v.00009a38.52137,38.52137,0,0,0,38.52137,38.52137H466.33511a38.52137,38.52137,0,0,0,38.52137-38.52137v-.00009A38.53089,38.53089,0,0,0,477.26285,403.666Z"></path><path fill="#2c2b2d" d="M466.335,486.62646H343.665a46.03106,46.03106,0,0,1-12.47266-90.3374,50.89052,50.89052,0,0,1,60.93311-37.80517A53.12594,53.12594,0,0,1,486.17188,391.626a53.59392,53.59392,0,0,1-.396,7.272A46.01744,46.01744,0,0,1,466.335,486.62646ZM380.69043,372.18457a35.91806,35.91806,0,0,0-35.58154,31.311,7.50054,7.50054,0,0,1-6.28174,6.46533,31.02262,31.02262,0,0,0,4.83789,61.66552H466.335a31.02142,31.02142,0,0,0,8.80322-60.76757,7.50041,7.50041,0,0,1-5.14306-9.0459,38.13085,38.13085,0,0,0-68.71241-30.53418,7.50207,7.50207,0,0,1-8.72509,2.92383A35.78463,35.78463,0,0,0,380.69043,372.18457Z"></path><path fill="#2c2b2d" d="M405.48877 379.37354a7.46243 7.46243 0 0 1-3.97022-1.14258 35.68211 35.68211 0 0 0-8.627-3.91553 7.49986 7.49986 0 0 1 4.32617-14.3623 50.65236 50.65236 0 0 1 12.25586 5.561 7.50075 7.50075 0 0 1-3.98486 13.85938zM337.79639 409.97656a7.50052 7.50052 0 0 1-1.14795-14.91113 50.60381 50.60381 0 0 1 13.4541-.291 7.50007 7.50007 0 1 1-1.667 14.90723 35.73049 35.73049 0 0 0-9.47266.2041A7.58006 7.58006 0 0 1 337.79639 409.97656zM471.06934 425.48438a7.50138 7.50138 0 0 1-6.23584-11.65772 35.6141 35.6141 0 0 0 5.11621-11.917 7.5001 7.5001 0 1 1 14.62988 3.3125 50.5604 50.5604 0 0 1-7.26074 16.918A7.4932 7.4932 0 0 1 471.06934 425.48438z"></path><path fill="#e0e0e2" d="M179.26285,332.80653a45.631,45.631,0,0,0-82.22456-36.54146,43.378,43.378,0,0,0-57.36991,35.42647A38.52876,38.52876,0,0,0,7.14352,369.74582v.00009a38.52137,38.52137,0,0,0,38.52137,38.52137H168.33511a38.52137,38.52137,0,0,0,38.52137-38.52137v-.00009A38.5309,38.5309,0,0,0,179.26285,332.80653Z"></path><path fill="#2c2b2d" d="M168.335,415.76709H45.665a46.03106,46.03106,0,0,1-12.47266-90.3374,50.89057,50.89057,0,0,1,60.93311-37.80518,53.126,53.126,0,0,1,94.04639,33.14209,53.59383,53.59383,0,0,1-.396,7.272A46.01745,46.01745,0,0,1,168.335,415.76709ZM82.69043,301.3252a35.91805,35.91805,0,0,0-35.58154,31.311,7.50052,7.50052,0,0,1-6.28174,6.46533A31.02263,31.02263,0,0,0,45.665,400.76709H168.335a31.02143,31.02143,0,0,0,8.80322-60.76758,7.50041,7.50041,0,0,1-5.14306-9.0459,38.13085,38.13085,0,0,0-68.71241-30.53418,7.50141,7.50141,0,0,1-8.72509,2.92383A35.78488,35.78488,0,0,0,82.69043,301.3252Z"></path><path fill="#2c2b2d" d="M107.48877 308.51416a7.46234 7.46234 0 0 1-3.97022-1.14258 35.68211 35.68211 0 0 0-8.627-3.91553 7.49986 7.49986 0 0 1 4.32617-14.3623 50.65239 50.65239 0 0 1 12.25586 5.561 7.50074 7.50074 0 0 1-3.98486 13.85937zM39.79639 339.11719a7.5006 7.5006 0 0 1-1.14893-14.91114 50.74205 50.74205 0 0 1 13.4541-.2915 7.5 7.5 0 1 1-1.665 14.90723 35.70584 35.70584 0 0 0-9.47265.20459A7.59386 7.59386 0 0 1 39.79639 339.11719zM173.06934 354.625a7.50137 7.50137 0 0 1-6.23584-11.65771 35.61414 35.61414 0 0 0 5.11621-11.917 7.5 7.5 0 1 1 14.62988 3.31153 50.561 50.561 0 0 1-7.26074 16.91894A7.4932 7.4932 0 0 1 173.06934 354.625z"></path><path fill="#e0e0e2" d="M476.26285,89.80653a45.631,45.631,0,0,0-82.22456-36.54146,43.378,43.378,0,0,0-57.36991,35.42647,38.52876,38.52876,0,0,0-32.52486,38.05428v.00009a38.52137,38.52137,0,0,0,38.52137,38.52137H465.33511a38.52137,38.52137,0,0,0,38.52137-38.52137v-.00009A38.5309,38.5309,0,0,0,476.26285,89.80653Z"></path><path fill="#2c2b2d" d="M465.335,172.76709H342.665a46.03106,46.03106,0,0,1-12.47266-90.3374,50.89057,50.89057,0,0,1,60.93311-37.80518A53.126,53.126,0,0,1,485.17188,77.7666a53.59383,53.59383,0,0,1-.396,7.272A46.01745,46.01745,0,0,1,465.335,172.76709ZM379.69043,58.3252a35.91805,35.91805,0,0,0-35.58154,31.311,7.50052,7.50052,0,0,1-6.28174,6.46533,31.02263,31.02263,0,0,0,4.83789,61.66553H465.335a31.02143,31.02143,0,0,0,8.80322-60.76758,7.50041,7.50041,0,0,1-5.14306-9.0459,38.13085,38.13085,0,0,0-68.71241-30.53418,7.50119,7.50119,0,0,1-8.72509,2.92383A35.78488,35.78488,0,0,0,379.69043,58.3252Z"></path><path fill="#2c2b2d" d="M404.48877 65.51416a7.46234 7.46234 0 0 1-3.97022-1.14258 35.68211 35.68211 0 0 0-8.627-3.91553 7.49986 7.49986 0 0 1 4.32617-14.3623 50.65239 50.65239 0 0 1 12.25586 5.561 7.50074 7.50074 0 0 1-3.98486 13.85937zM336.79639 96.11719a7.5006 7.5006 0 0 1-1.14893-14.91114 50.70085 50.70085 0 0 1 13.4541-.2915 7.5 7.5 0 1 1-1.665 14.90723 35.70584 35.70584 0 0 0-9.47265.20459A7.59386 7.59386 0 0 1 336.79639 96.11719zM470.06934 111.625a7.50137 7.50137 0 0 1-6.23584-11.65771 35.61414 35.61414 0 0 0 5.11621-11.917 7.5 7.5 0 1 1 14.62988 3.31153 50.561 50.561 0 0 1-7.26074 16.91894A7.4932 7.4932 0 0 1 470.06934 111.625z"></path></svg>